<?xml version="1.0" encoding="utf-8"?>
<!-- Generator: Adobe Illustrator 16.0.0, SVG Export Plug-In . SVG Version: 6.00 Build 0)  -->
<!DOCTYPE svg PUBLIC "-//W3C//DTD SVG 1.1//EN" "http://www.w3.org/Graphics/SVG/1.1/DTD/svg11.dtd">
<svg version="1.1" xmlns="http://www.w3.org/2000/svg" xmlns:xlink="http://www.w3.org/1999/xlink" x="0px" y="0px"
	 width="720px" height="400px" viewBox="0 0 1151.77 1151.77" enable-background="new 0 0 1151.77 1151.77"
	 xml:space="preserve">
<g id="Layer_1">
	<linearGradient id="SVGID_1_" gradientUnits="userSpaceOnUse" x1="171.5068" y1="575.8843" x2="971.2822" y2="575.8843">
		<stop  offset="0" style="stop-color:#F9A579"/>
		<stop  offset="1" style="stop-color:#F16C70"/>
	</linearGradient>
	<path fill="url(#SVGID_1_)" d="M971.221,575.546l0.062-266.328c-145.258,0-263.083,116.211-266.188,260.584h-0.341l0.079-260.584
		c-141.486,0-256.767,110.145-265.591,249.402l-1.827-0.115V309.626H171.962V575.2h0.684l-1.139,0.876V842.55
		c144.044,0,261.2-114.512,265.907-257.497h0.548V842.55c138.989,0,253.062-106.564,265.182-242.539l1.688,0.14V842.55
		c147.139,0,266.45-119.384,266.45-266.474l-1.743-0.53H971.221z"/>
</g>
<g id="Layer_3">
</g>
<g id="Layer_4">
</g>
<g id="Layer_5">
</g>
<g id="Layer_6">
</g>
</svg>
